<svg width="74" height="74" fill="none" xmlns="http://www.w3.org/2000/svg"><path d="M66.839 13.129C66.839 5.767 53.732 0 37 0S7.161 5.767 7.161 13.129c.002.4.042.8.12 1.194h-.12V60.87C7.161 68.233 20.268 74 37.001 74c16.731 0 29.838-5.767 29.838-13.129V14.323h-.12c.079-.393.119-.793.12-1.194zm-2.387 47.742c0 5.187-11.031 10.742-27.452 10.742-16.42 0-27.452-5.555-27.452-10.742v-6.702C14.06 58.855 24.52 62.065 37 62.065c12.48 0 22.94-3.21 27.452-7.896v6.702zm0-11.936c0 5.188-11.031 10.742-27.452 10.742-16.42 0-27.452-5.554-27.452-10.742v-6.701C14.06 46.92 24.52 50.129 37 50.129c12.48 0 22.94-3.21 27.452-7.895v6.701zm0-11.935c0 5.187-11.031 10.742-27.452 10.742-16.42 0-27.452-5.555-27.452-10.742v-6.702C14.06 34.984 24.52 38.194 37 38.194c12.48 0 22.94-3.21 27.452-7.896V37zm0-11.936c0 5.188-11.031 10.742-27.452 10.742-16.42 0-27.452-5.554-27.452-10.741v-6.702C14.06 23.049 24.52 26.258 37 26.258c12.48 0 22.94-3.21 27.452-7.895v6.701zM37 23.871c-16.42 0-27.452-5.555-27.452-10.742C9.548 7.942 20.58 2.387 37 2.387c16.42 0 27.452 5.555 27.452 10.742 0 5.187-11.031 10.742-27.452 10.742z" fill="url(#paint0_linear)"/><defs><linearGradient id="paint0_linear" x1="6.117" y1="37" x2="66.839" y2="37" gradientUnits="userSpaceOnUse"><stop stop-color="#3494E6"/><stop offset="1" stop-color="#EC6EAD"/></linearGradient></defs></svg>