<svg width="81" height="81" fill="none" xmlns="http://www.w3.org/2000/svg"><path d="M74.672 2.531H31.64a3.808 3.808 0 00-3.797 3.797v29.11H8.859a3.808 3.808 0 00-3.797 3.796v31.641H3.95a1.266 1.266 0 00-1.228 1.531l1.101 5.063a1.266 1.266 0 001.24 1h60.75a1.266 1.266 0 001.24-1l1.102-5.063a1.25 1.25 0 00-.253-1.063 1.265 1.265 0 00-.975-.468h-1.114V48.094h8.86a3.809 3.809 0 003.797-3.797V6.328a3.808 3.808 0 00-3.797-3.797zM7.594 39.234a1.266 1.266 0 011.265-1.265h18.985v6.328a3.808 3.808 0 003.797 3.797h31.64v22.781H39.234a1.265 1.265 0 00-1.265 1.266h-5.063a1.266 1.266 0 00-1.265-1.266H7.594v-31.64zM64.8 75.937H6.075l-.544-2.53h24.844a1.266 1.266 0 001.266 1.265h7.593a1.266 1.266 0 001.266-1.266h24.844l-.544 2.531zm11.137-31.64a1.265 1.265 0 01-1.265 1.266H31.64a1.266 1.266 0 01-1.266-1.266v-29.11h45.562v29.11zm0-31.64H30.375V6.327a1.266 1.266 0 011.266-1.266h43.03a1.265 1.265 0 011.266 1.266v6.328z" fill="url(#paint0_linear)"/><path d="M70.875 7.594h2.531v2.531h-2.531V7.594z" fill="url(#paint1_linear)"/><path d="M65.813 7.594h2.53v2.531h-2.53V7.594z" fill="url(#paint2_linear)"/><path d="M60.75 7.594h2.531v2.531H60.75V7.594z" fill="url(#paint3_linear)"/><path d="M45.933 21.887L38.34 29.48a1.266 1.266 0 000 1.79l7.593 7.594 1.79-1.79-6.7-6.699 6.7-6.699-1.79-1.79z" fill="url(#paint4_linear)"/><path d="M60.38 21.887l-1.79 1.79 6.699 6.698-6.7 6.699 1.79 1.79 7.594-7.594a1.265 1.265 0 000-1.79l-7.594-7.593z" fill="url(#paint5_linear)"/><path d="M48.152 41.34l7.588-22.79 2.403.8-7.589 22.79-2.402-.8z" fill="url(#paint6_linear)"/><path d="M21.516 60.75h11.39v2.531h-11.39V60.75z" fill="url(#paint7_linear)"/><path d="M10.125 60.75h8.86v2.531h-8.86V60.75z" fill="url(#paint8_linear)"/><path d="M10.125 65.813h17.719v2.53H10.125v-2.53z" fill="url(#paint9_linear)"/><path d="M48.094 60.75H60.75v2.531H48.094V60.75z" fill="url(#paint10_linear)"/><path d="M35.438 60.75h10.124v2.531H35.438V60.75z" fill="url(#paint11_linear)"/><path d="M30.375 65.813H60.75v2.53H30.375v-2.53z" fill="url(#paint12_linear)"/><path d="M10.125 45.563h15.188v2.53H10.124v-2.53z" fill="url(#paint13_linear)"/><path d="M10.125 40.5h15.188v2.531H10.124V40.5z" fill="url(#paint14_linear)"/><defs><linearGradient id="paint0_linear" x1="1.365" y1="40.5" x2="78.469" y2="40.5" gradientUnits="userSpaceOnUse"><stop stop-color="#3494E6"/><stop offset="1" stop-color="#EC6EAD"/></linearGradient><linearGradient id="paint1_linear" x1="70.831" y1="8.859" x2="73.406" y2="8.859" gradientUnits="userSpaceOnUse"><stop stop-color="#3494E6"/><stop offset="1" stop-color="#EC6EAD"/></linearGradient><linearGradient id="paint2_linear" x1="65.768" y1="8.859" x2="68.344" y2="8.859" gradientUnits="userSpaceOnUse"><stop stop-color="#3494E6"/><stop offset="1" stop-color="#EC6EAD"/></linearGradient><linearGradient id="paint3_linear" x1="60.706" y1="8.859" x2="63.281" y2="8.859" gradientUnits="userSpaceOnUse"><stop stop-color="#3494E6"/><stop offset="1" stop-color="#EC6EAD"/></linearGradient><linearGradient id="paint4_linear" x1="37.798" y1="30.375" x2="47.723" y2="30.375" gradientUnits="userSpaceOnUse"><stop stop-color="#3494E6"/><stop offset="1" stop-color="#EC6EAD"/></linearGradient><linearGradient id="paint5_linear" x1="58.419" y1="30.375" x2="68.344" y2="30.375" gradientUnits="userSpaceOnUse"><stop stop-color="#3494E6"/><stop offset="1" stop-color="#EC6EAD"/></linearGradient><linearGradient id="paint6_linear" x1="49.22" y1="42.138" x2="56.942" y2="18.95" gradientUnits="userSpaceOnUse"><stop stop-color="#3494E6"/><stop offset="1" stop-color="#EC6EAD"/></linearGradient><linearGradient id="paint7_linear" x1="21.316" y1="62.016" x2="32.906" y2="62.016" gradientUnits="userSpaceOnUse"><stop stop-color="#3494E6"/><stop offset="1" stop-color="#EC6EAD"/></linearGradient><linearGradient id="paint8_linear" x1="9.97" y1="62.016" x2="18.984" y2="62.016" gradientUnits="userSpaceOnUse"><stop stop-color="#3494E6"/><stop offset="1" stop-color="#EC6EAD"/></linearGradient><linearGradient id="paint9_linear" x1="9.815" y1="67.078" x2="27.844" y2="67.078" gradientUnits="userSpaceOnUse"><stop stop-color="#3494E6"/><stop offset="1" stop-color="#EC6EAD"/></linearGradient><linearGradient id="paint10_linear" x1="47.872" y1="62.016" x2="60.75" y2="62.016" gradientUnits="userSpaceOnUse"><stop stop-color="#3494E6"/><stop offset="1" stop-color="#EC6EAD"/></linearGradient><linearGradient id="paint11_linear" x1="35.26" y1="62.016" x2="45.563" y2="62.016" gradientUnits="userSpaceOnUse"><stop stop-color="#3494E6"/><stop offset="1" stop-color="#EC6EAD"/></linearGradient><linearGradient id="paint12_linear" x1="29.843" y1="67.078" x2="60.75" y2="67.078" gradientUnits="userSpaceOnUse"><stop stop-color="#3494E6"/><stop offset="1" stop-color="#EC6EAD"/></linearGradient><linearGradient id="paint13_linear" x1="9.859" y1="46.828" x2="25.313" y2="46.828" gradientUnits="userSpaceOnUse"><stop stop-color="#3494E6"/><stop offset="1" stop-color="#EC6EAD"/></linearGradient><linearGradient id="paint14_linear" x1="9.859" y1="41.766" x2="25.313" y2="41.766" gradientUnits="userSpaceOnUse"><stop stop-color="#3494E6"/><stop offset="1" stop-color="#EC6EAD"/></linearGradient></defs></svg>