<svg width="80" height="80" fill="none" xmlns="http://www.w3.org/2000/svg"><g clip-path="url(#clip0)"><path d="M41.978 38.024a1.563 1.563 0 10-2.21 2.209 1.563 1.563 0 002.21-2.21z" fill="url(#paint0_linear)"/><path d="M61.864 18.136a7.81 7.81 0 00-11.048 0c-3.046 3.045-3.046 8.001 0 11.049 3.046 3.044 8.002 3.046 11.048 0a7.809 7.809 0 000-11.049zm-2.21 8.839a4.694 4.694 0 01-6.628 0 4.694 4.694 0 010-6.63 4.685 4.685 0 016.629 0 4.685 4.685 0 010 6.63z" fill="url(#paint1_linear)"/><path d="M79.542.458A1.557 1.557 0 0078.38 0c-.353.013-8.765.35-18.764 3.885-8.013 2.83-14.691 6.88-19.85 12.039a59.485 59.485 0 00-3.358 3.656c-5.101-3.003-9.189-2.062-11.773-.679-5.95 3.185-9.633 11.83-9.633 18.015a1.563 1.563 0 002.668 1.105c3.137-3.138 7.008-2.942 8.272-2.775l.547.547a54.946 54.946 0 00-2.58 7.589 4.423 4.423 0 00.19 2.714c-1.505.693-2.957 1.711-4.22 2.975-4.022 4.022-4.84 13.824-4.872 14.24a1.563 1.563 0 001.68 1.68c.416-.033 10.218-.85 14.24-4.871 1.264-1.264 2.281-2.715 2.975-4.219a4.413 4.413 0 002.715.188 54.968 54.968 0 007.588-2.58l.547.547c.166 1.264.363 5.135-2.775 8.273a1.562 1.562 0 001.105 2.667c6.184 0 14.83-3.683 18.014-9.633 1.383-2.584 2.325-6.672-.678-11.773a59.55 59.55 0 003.656-3.358c5.16-5.16 9.21-11.838 12.038-19.85 3.535-10 3.873-18.411 3.886-18.764a1.562 1.562 0 00-.457-1.161zM18.496 33.557c.97-4.698 3.79-9.852 7.615-11.9 2.556-1.367 5.35-1.233 8.32.393a63.175 63.175 0 00-6.564 10.7c-.024-.014-.305-.367-.827-.485-.215-.048-4.35-.938-8.544 1.291zM28.72 57.91c-2.149 2.148-7.189 3.281-10.374 3.744.463-3.186 1.596-8.225 3.744-10.373 1.203-1.204 2.598-2.116 4-2.63l5.259 5.258c-.514 1.403-1.426 2.798-2.63 4zm7.123-4.848c-.452.116-.976-.054-1.365-.443l-3.06-3.06-4.036-4.036c-.39-.39-.56-.914-.444-1.365a50.75 50.75 0 011.95-5.968L41.81 51.112a50.706 50.706 0 01-5.967 1.95zm22.5.826c-2.047 3.825-7.2 6.644-11.898 7.615 1.497-2.819 1.828-6.406 1.28-8.582-.127-.505-.456-.759-.475-.789a63.207 63.207 0 0010.701-6.565c1.626 2.971 1.76 5.766.393 8.321zm3.523-15.866a56.732 56.732 0 01-4.506 4.043 60.033 60.033 0 01-12.456 7.721l-14.69-14.69a60.02 60.02 0 017.72-12.456 56.685 56.685 0 014.044-4.506c4.629-4.63 10.603-8.313 17.76-10.965L72.83 20.262c-2.651 7.158-6.335 13.132-10.965 17.761zm12.09-21.056L63.033 6.045c5.95-1.848 11.127-2.54 13.71-2.788-.248 2.584-.94 7.76-2.788 13.71z" fill="url(#paint2_linear)"/><path d="M37.558 64.539c-.61-.61-1.6-.61-2.21 0l-4.419 4.42a1.563 1.563 0 002.21 2.21l4.42-4.42c.61-.61.61-1.6-.001-2.21z" fill="url(#paint3_linear)"/><path d="M15.462 42.442c-.61-.61-1.6-.61-2.21 0l-4.42 4.419a1.563 1.563 0 002.209 2.21l4.42-4.419c.61-.61.61-1.6 0-2.21z" fill="url(#paint4_linear)"/><path d="M26.51 66.75c-.61-.61-1.6-.61-2.21 0L13.716 77.332a1.562 1.562 0 102.21 2.21L26.51 68.96c.61-.61.61-1.6 0-2.21z" fill="url(#paint5_linear)"/><path d="M14.01 66.75c-.61-.61-1.6-.61-2.21 0L1.216 77.332a1.562 1.562 0 102.21 2.21L14.01 68.96c.61-.61.61-1.6 0-2.21z" fill="url(#paint6_linear)"/><path d="M13.25 53.49c-.61-.61-1.6-.61-2.21 0L.459 64.075a1.563 1.563 0 002.21 2.21L13.25 55.7c.61-.61.61-1.6 0-2.21z" fill="url(#paint7_linear)"/><path d="M48.607 31.394c-.61-.61-1.6-.61-2.21 0l-2.21 2.209a1.563 1.563 0 002.21 2.21l2.21-2.21c.61-.61.61-1.599 0-2.21z" fill="url(#paint8_linear)"/></g><defs><linearGradient id="paint0_linear" x1="39.256" y1="39.128" x2="42.435" y2="39.128" gradientUnits="userSpaceOnUse"><stop stop-color="#3494E6"/><stop offset="1" stop-color="#EC6EAD"/></linearGradient><linearGradient id="paint1_linear" x1="48.258" y1="23.657" x2="64.154" y2="23.657" gradientUnits="userSpaceOnUse"><stop stop-color="#3494E6"/><stop offset="1" stop-color="#EC6EAD"/></linearGradient><linearGradient id="paint2_linear" x1="13.865" y1="32.498" x2="79.999" y2="32.498" gradientUnits="userSpaceOnUse"><stop stop-color="#3494E6"/><stop offset="1" stop-color="#EC6EAD"/></linearGradient><linearGradient id="paint3_linear" x1="30.34" y1="67.854" x2="38.016" y2="67.854" gradientUnits="userSpaceOnUse"><stop stop-color="#3494E6"/><stop offset="1" stop-color="#EC6EAD"/></linearGradient><linearGradient id="paint4_linear" x1="8.242" y1="45.756" x2="15.919" y2="45.756" gradientUnits="userSpaceOnUse"><stop stop-color="#3494E6"/><stop offset="1" stop-color="#EC6EAD"/></linearGradient><linearGradient id="paint5_linear" x1="13.018" y1="73.146" x2="26.967" y2="73.146" gradientUnits="userSpaceOnUse"><stop stop-color="#3494E6"/><stop offset="1" stop-color="#EC6EAD"/></linearGradient><linearGradient id="paint6_linear" x1=".518" y1="73.146" x2="14.467" y2="73.146" gradientUnits="userSpaceOnUse"><stop stop-color="#3494E6"/><stop offset="1" stop-color="#EC6EAD"/></linearGradient><linearGradient id="paint7_linear" x1="-.24" y1="59.887" x2="13.708" y2="59.887" gradientUnits="userSpaceOnUse"><stop stop-color="#3494E6"/><stop offset="1" stop-color="#EC6EAD"/></linearGradient><linearGradient id="paint8_linear" x1="43.636" y1="33.603" x2="49.064" y2="33.603" gradientUnits="userSpaceOnUse"><stop stop-color="#3494E6"/><stop offset="1" stop-color="#EC6EAD"/></linearGradient><clipPath id="clip0"><path fill="#fff" d="M0 0h80v80H0z"/></clipPath></defs></svg>