<svg width="74" height="74" viewBox="0 0 74 74" fill="none" xmlns="http://www.w3.org/2000/svg">
<path d="M66.8388 13.129C66.8388 5.76723 53.7324 0 37.0001 0C20.2677 0 7.16138 5.76723 7.16138 13.129C7.16272 13.5298 7.2027 13.9295 7.28073 14.3226H7.16138V60.871C7.16138 68.2328 20.2677 74 37.0001 74C53.7324 74 66.8388 68.2328 66.8388 60.871V14.3226H66.7194C66.7975 13.9295 66.8375 13.5298 66.8388 13.129ZM64.4517 60.871C64.4517 66.0581 53.4209 71.6129 37.0001 71.6129C20.5792 71.6129 9.54847 66.0581 9.54847 60.871V54.1692C14.0601 58.8551 24.5203 62.0645 37.0001 62.0645C49.4798 62.0645 59.9401 58.8551 64.4517 54.1692V60.871ZM64.4517 48.9355C64.4517 54.1226 53.4209 59.6774 37.0001 59.6774C20.5792 59.6774 9.54847 54.1226 9.54847 48.9355V42.2337C14.0601 46.9196 24.5203 50.129 37.0001 50.129C49.4798 50.129 59.9401 46.9196 64.4517 42.2337V48.9355ZM64.4517 37C64.4517 42.1872 53.4209 47.7419 37.0001 47.7419C20.5792 47.7419 9.54847 42.1872 9.54847 37V30.2982C14.0601 34.9841 24.5203 38.1936 37.0001 38.1936C49.4798 38.1936 59.9401 34.9841 64.4517 30.2982V37ZM64.4517 25.0645C64.4517 30.2517 53.4209 35.8065 37.0001 35.8065C20.5792 35.8065 9.54847 30.2517 9.54847 25.0645V18.3627C14.0601 23.0486 24.5203 26.2581 37.0001 26.2581C49.4798 26.2581 59.9401 23.0486 64.4517 18.3627V25.0645ZM37.0001 23.871C20.5792 23.871 9.54847 18.3162 9.54847 13.129C9.54847 7.94187 20.5792 2.3871 37.0001 2.3871C53.4209 2.3871 64.4517 7.94187 64.4517 13.129C64.4517 18.3162 53.4209 23.871 37.0001 23.871Z" fill="url(#paint0_linear)"/>
<defs>
<linearGradient id="paint0_linear" x1="6.11702" y1="37" x2="66.8388" y2="37" gradientUnits="userSpaceOnUse">
<stop stop-color="#3494E6"/>
<stop offset="1" stop-color="#EC6EAD"/>
</linearGradient>
</defs>
</svg>
