<svg width="84" height="84" fill="none" xmlns="http://www.w3.org/2000/svg"><path d="M45.938 73.5h-1.555c.156-.42.238-.864.242-1.313V48.564a3.937 3.937 0 00-3.938-3.938h-31.5a3.937 3.937 0 00-3.937 3.938v23.624c.004.449.086.893.242 1.313H3.938a1.313 1.313 0 00-1.313 1.313v2.624a3.937 3.937 0 003.938 3.938h36.75a3.937 3.937 0 003.937-3.938v-2.624a1.313 1.313 0 00-1.313-1.313zM7.874 72.187V48.564a1.313 1.313 0 011.313-1.313h31.5A1.313 1.313 0 0142 48.563v23.624a1.313 1.313 0 01-1.313 1.313h-31.5a1.313 1.313 0 01-1.312-1.313zm36.75 5.25a1.313 1.313 0 01-1.313 1.313H6.563a1.313 1.313 0 01-1.312-1.313v-1.312h39.375v1.313z" fill="url(#paint0_linear)"/><path d="M40.688 49.875a1.313 1.313 0 00-1.313-1.313H10.5a1.313 1.313 0 00-1.313 1.313v21a1.313 1.313 0 001.313 1.313h28.875a1.313 1.313 0 001.313-1.313v-21zm-2.626 19.688h-26.25V51.186h26.25v18.376z" fill="url(#paint1_linear)"/><path d="M77.438 44.625h-15.75a3.937 3.937 0 00-3.938 3.938v28.874a3.937 3.937 0 003.938 3.938h15.75a3.937 3.937 0 003.937-3.938V48.564a3.937 3.937 0 00-3.938-3.938zm-17.063 10.5H78.75v15.75H60.375v-15.75zm1.313-7.875h15.75a1.313 1.313 0 011.312 1.313V52.5H60.375v-3.938a1.313 1.313 0 011.313-1.312zm15.75 31.5h-15.75a1.313 1.313 0 01-1.313-1.313V73.5H78.75v3.938a1.313 1.313 0 01-1.313 1.312z" fill="url(#paint2_linear)"/><path d="M70.875 74.813H68.25a1.313 1.313 0 000 2.624h2.625a1.313 1.313 0 000-2.624z" fill="url(#paint3_linear)"/><path d="M68.25 51.188h2.625a1.313 1.313 0 000-2.626H68.25a1.313 1.313 0 000 2.626z" fill="url(#paint4_linear)"/><path d="M22.313 42h39.374a3.937 3.937 0 003.938-3.938v-31.5a3.937 3.937 0 00-3.938-3.937H22.313a3.937 3.937 0 00-3.938 3.938v31.5A3.937 3.937 0 0022.313 42zM63 38.062a1.313 1.313 0 01-1.313 1.313H22.313A1.313 1.313 0 0121 38.062V13.125h42v24.938zm-42-31.5a1.313 1.313 0 011.313-1.312h39.374A1.313 1.313 0 0163 6.563V10.5H21V6.562z" fill="url(#paint5_linear)"/><path d="M23.625 6.563h2.625v2.625h-2.625V6.562z" fill="url(#paint6_linear)"/><path d="M28.875 6.563H31.5v2.625h-2.625V6.562z" fill="url(#paint7_linear)"/><path d="M34.125 6.563h2.625v2.625h-2.625V6.562z" fill="url(#paint8_linear)"/><path d="M24.938 22.313h34.124A1.313 1.313 0 0060.376 21v-5.25a1.313 1.313 0 00-1.313-1.313H24.938a1.313 1.313 0 00-1.313 1.313V21a1.313 1.313 0 001.313 1.313zm1.312-5.25h31.5v2.625h-31.5v-2.625z" fill="url(#paint9_linear)"/><path d="M24.938 38.063h9.187a1.313 1.313 0 001.313-1.313V24.937a1.313 1.313 0 00-1.313-1.312h-9.188a1.313 1.313 0 00-1.312 1.313V36.75a1.313 1.313 0 001.313 1.313zM26.25 26.25h6.563v9.188H26.25V26.25z" fill="url(#paint10_linear)"/><path d="M59.063 23.625H39.374a1.313 1.313 0 00-1.313 1.313V36.75a1.313 1.313 0 001.313 1.313h19.688a1.313 1.313 0 001.312-1.313V24.937a1.313 1.313 0 00-1.313-1.312zM57.75 35.438H40.687V26.25H57.75v9.188z" fill="url(#paint11_linear)"/><path d="M15.75 68.25H21a1.313 1.313 0 001.313-1.313V53.813A1.313 1.313 0 0021 52.5h-5.25a1.313 1.313 0 00-1.313 1.313v13.124a1.313 1.313 0 001.313 1.313zm1.313-13.125h2.625v10.5h-2.625v-10.5z" fill="url(#paint12_linear)"/><path d="M26.25 68.25h7.875a1.313 1.313 0 001.313-1.313V53.813a1.313 1.313 0 00-1.313-1.313H26.25a1.313 1.313 0 00-1.313 1.313v13.124a1.313 1.313 0 001.313 1.313zm6.563-2.625h-5.25v-3.938h5.25v3.938zm-5.25-10.5h5.25v3.938h-5.25v-3.938z" fill="url(#paint13_linear)"/><path d="M74.813 56.438h-10.5A1.313 1.313 0 0063 57.75v10.5a1.313 1.313 0 001.313 1.313h10.5a1.313 1.313 0 001.312-1.313v-10.5a1.313 1.313 0 00-1.313-1.313zm-9.188 2.624H73.5v2.626h-7.875v-2.626zm7.875 7.876h-7.875v-2.626H73.5v2.626z" fill="url(#paint14_linear)"/><path d="M73.5 23.625h2.625v2.625H73.5v-2.625z" fill="url(#paint15_linear)"/><path d="M73.5 28.875h2.625V31.5H73.5v-2.625z" fill="url(#paint16_linear)"/><path d="M73.5 34.125h2.625v2.625H73.5v-2.625z" fill="url(#paint17_linear)"/><path d="M73.5 39.375h2.625V42H73.5v-2.625z" fill="url(#paint18_linear)"/><path d="M68.25 23.625h2.625v2.625H68.25v-2.625z" fill="url(#paint19_linear)"/><path d="M47.25 59.063h2.625v2.624H47.25v-2.624z" fill="url(#paint20_linear)"/><path d="M52.5 59.063h2.625v2.624H52.5v-2.624z" fill="url(#paint21_linear)"/><path d="M7.875 23.625H10.5v2.625H7.875v-2.625z" fill="url(#paint22_linear)"/><path d="M7.875 28.875H10.5V31.5H7.875v-2.625z" fill="url(#paint23_linear)"/><path d="M7.875 34.125H10.5v2.625H7.875v-2.625z" fill="url(#paint24_linear)"/><path d="M7.875 39.375H10.5V42H7.875v-2.625z" fill="url(#paint25_linear)"/><path d="M13.125 23.625h2.625v2.625h-2.625v-2.625z" fill="url(#paint26_linear)"/><defs><linearGradient id="paint0_linear" x1="1.844" y1="63" x2="47.25" y2="63" gradientUnits="userSpaceOnUse"><stop stop-color="#3494E6"/><stop offset="1" stop-color="#EC6EAD"/></linearGradient><linearGradient id="paint1_linear" x1="8.636" y1="60.375" x2="40.688" y2="60.375" gradientUnits="userSpaceOnUse"><stop stop-color="#3494E6"/><stop offset="1" stop-color="#EC6EAD"/></linearGradient><linearGradient id="paint2_linear" x1="57.337" y1="63" x2="81.375" y2="63" gradientUnits="userSpaceOnUse"><stop stop-color="#3494E6"/><stop offset="1" stop-color="#EC6EAD"/></linearGradient><linearGradient id="paint3_linear" x1="66.846" y1="76.125" x2="72.188" y2="76.125" gradientUnits="userSpaceOnUse"><stop stop-color="#3494E6"/><stop offset="1" stop-color="#EC6EAD"/></linearGradient><linearGradient id="paint4_linear" x1="66.846" y1="49.875" x2="72.188" y2="49.875" gradientUnits="userSpaceOnUse"><stop stop-color="#3494E6"/><stop offset="1" stop-color="#EC6EAD"/></linearGradient><linearGradient id="paint5_linear" x1="17.548" y1="22.313" x2="65.625" y2="22.313" gradientUnits="userSpaceOnUse"><stop stop-color="#3494E6"/><stop offset="1" stop-color="#EC6EAD"/></linearGradient><linearGradient id="paint6_linear" x1="23.579" y1="7.875" x2="26.25" y2="7.875" gradientUnits="userSpaceOnUse"><stop stop-color="#3494E6"/><stop offset="1" stop-color="#EC6EAD"/></linearGradient><linearGradient id="paint7_linear" x1="28.829" y1="7.875" x2="31.5" y2="7.875" gradientUnits="userSpaceOnUse"><stop stop-color="#3494E6"/><stop offset="1" stop-color="#EC6EAD"/></linearGradient><linearGradient id="paint8_linear" x1="34.079" y1="7.875" x2="36.75" y2="7.875" gradientUnits="userSpaceOnUse"><stop stop-color="#3494E6"/><stop offset="1" stop-color="#EC6EAD"/></linearGradient><linearGradient id="paint9_linear" x1="22.982" y1="18.375" x2="60.375" y2="18.375" gradientUnits="userSpaceOnUse"><stop stop-color="#3494E6"/><stop offset="1" stop-color="#EC6EAD"/></linearGradient><linearGradient id="paint10_linear" x1="23.418" y1="30.844" x2="35.438" y2="30.844" gradientUnits="userSpaceOnUse"><stop stop-color="#3494E6"/><stop offset="1" stop-color="#EC6EAD"/></linearGradient><linearGradient id="paint11_linear" x1="37.672" y1="30.844" x2="60.375" y2="30.844" gradientUnits="userSpaceOnUse"><stop stop-color="#3494E6"/><stop offset="1" stop-color="#EC6EAD"/></linearGradient><linearGradient id="paint12_linear" x1="14.3" y1="60.375" x2="22.313" y2="60.375" gradientUnits="userSpaceOnUse"><stop stop-color="#3494E6"/><stop offset="1" stop-color="#EC6EAD"/></linearGradient><linearGradient id="paint13_linear" x1="24.754" y1="60.375" x2="35.438" y2="60.375" gradientUnits="userSpaceOnUse"><stop stop-color="#3494E6"/><stop offset="1" stop-color="#EC6EAD"/></linearGradient><linearGradient id="paint14_linear" x1="62.77" y1="63" x2="76.125" y2="63" gradientUnits="userSpaceOnUse"><stop stop-color="#3494E6"/><stop offset="1" stop-color="#EC6EAD"/></linearGradient><linearGradient id="paint15_linear" x1="73.454" y1="24.938" x2="76.125" y2="24.938" gradientUnits="userSpaceOnUse"><stop stop-color="#3494E6"/><stop offset="1" stop-color="#EC6EAD"/></linearGradient><linearGradient id="paint16_linear" x1="73.454" y1="30.188" x2="76.125" y2="30.188" gradientUnits="userSpaceOnUse"><stop stop-color="#3494E6"/><stop offset="1" stop-color="#EC6EAD"/></linearGradient><linearGradient id="paint17_linear" x1="73.454" y1="35.438" x2="76.125" y2="35.438" gradientUnits="userSpaceOnUse"><stop stop-color="#3494E6"/><stop offset="1" stop-color="#EC6EAD"/></linearGradient><linearGradient id="paint18_linear" x1="73.454" y1="40.688" x2="76.125" y2="40.688" gradientUnits="userSpaceOnUse"><stop stop-color="#3494E6"/><stop offset="1" stop-color="#EC6EAD"/></linearGradient><linearGradient id="paint19_linear" x1="68.204" y1="24.938" x2="70.875" y2="24.938" gradientUnits="userSpaceOnUse"><stop stop-color="#3494E6"/><stop offset="1" stop-color="#EC6EAD"/></linearGradient><linearGradient id="paint20_linear" x1="47.204" y1="60.375" x2="49.875" y2="60.375" gradientUnits="userSpaceOnUse"><stop stop-color="#3494E6"/><stop offset="1" stop-color="#EC6EAD"/></linearGradient><linearGradient id="paint21_linear" x1="52.454" y1="60.375" x2="55.125" y2="60.375" gradientUnits="userSpaceOnUse"><stop stop-color="#3494E6"/><stop offset="1" stop-color="#EC6EAD"/></linearGradient><linearGradient id="paint22_linear" x1="7.829" y1="24.938" x2="10.5" y2="24.938" gradientUnits="userSpaceOnUse"><stop stop-color="#3494E6"/><stop offset="1" stop-color="#EC6EAD"/></linearGradient><linearGradient id="paint23_linear" x1="7.829" y1="30.188" x2="10.5" y2="30.188" gradientUnits="userSpaceOnUse"><stop stop-color="#3494E6"/><stop offset="1" stop-color="#EC6EAD"/></linearGradient><linearGradient id="paint24_linear" x1="7.829" y1="35.438" x2="10.5" y2="35.438" gradientUnits="userSpaceOnUse"><stop stop-color="#3494E6"/><stop offset="1" stop-color="#EC6EAD"/></linearGradient><linearGradient id="paint25_linear" x1="7.829" y1="40.688" x2="10.5" y2="40.688" gradientUnits="userSpaceOnUse"><stop stop-color="#3494E6"/><stop offset="1" stop-color="#EC6EAD"/></linearGradient><linearGradient id="paint26_linear" x1="13.079" y1="24.938" x2="15.75" y2="24.938" gradientUnits="userSpaceOnUse"><stop stop-color="#3494E6"/><stop offset="1" stop-color="#EC6EAD"/></linearGradient></defs></svg>