<svg width="80" height="80" viewBox="0 0 80 80" fill="none" xmlns="http://www.w3.org/2000/svg">
<path d="M74 0H6C2.69203 0 0 2.69203 0 6V74C0 77.308 2.69203 80 6 80H74C77.308 80 80 77.308 80 74V6C80 2.69203 77.308 0 74 0ZM77.3333 74C77.3333 75.8386 75.8386 77.3333 74 77.3333H6C4.16266 77.3333 2.66672 75.8386 2.66672 74V6C2.66672 4.16125 4.16266 2.66672 6 2.66672H74C75.8373 2.66672 77.3333 4.16141 77.3333 6V74Z" fill="url(#paint0_linear)"/>
<path d="M12.0001 5.33325H6.66678C5.93084 5.33325 5.3335 5.92919 5.3335 6.66653V12C5.3335 12.7373 5.93084 13.3333 6.66678 13.3333H12.0001C12.736 13.3333 13.3333 12.7373 13.3333 12V6.66669C13.3333 5.92935 12.736 5.33325 12.0001 5.33325ZM10.6668 10.6667H8.00006V7.99997H10.6668V10.6667Z" fill="url(#paint1_linear)"/>
<path d="M22.6668 5.33325H17.3335C16.5976 5.33325 16.0002 5.92919 16.0002 6.66653V12C16.0002 12.7373 16.5976 13.3333 17.3335 13.3333H22.6668C23.4027 13.3333 24.0001 12.7373 24.0001 12V6.66669C24.0001 5.92935 23.4027 5.33325 22.6668 5.33325ZM21.3334 10.6667H18.6667V7.99997H21.3334V10.6667Z" fill="url(#paint2_linear)"/>
<path d="M33.3333 5.33325H28C27.2641 5.33325 26.6667 5.92919 26.6667 6.66653V12C26.6667 12.7373 27.2641 13.3333 28 13.3333H33.3333C34.0692 13.3333 34.6666 12.7373 34.6666 12V6.66669C34.6667 5.92935 34.0694 5.33325 33.3333 5.33325ZM32 10.6667H29.3333V7.99997H32V10.6667Z" fill="url(#paint3_linear)"/>
<path d="M74 0H6C2.69203 0 0 2.69203 0 6V17.3333C0 18.0706 0.597344 18.6666 1.33328 18.6666H78.6666C79.4025 18.6666 79.9999 18.0706 79.9999 17.3333V6C80 2.69203 77.308 0 74 0ZM77.3333 16H2.66672V6C2.66672 4.16125 4.16266 2.66672 6 2.66672H74C75.8374 2.66672 77.3333 4.16141 77.3333 6V16Z" fill="url(#paint4_linear)"/>
<path d="M19.6093 25.7241C19.0893 25.2027 18.244 25.2027 17.724 25.7241L12.3906 31.0573C11.8692 31.5786 11.8692 32.4214 12.3906 32.9427C12.6506 33.2027 12.992 33.3333 13.3332 33.3333C13.6746 33.3333 14.0159 33.2027 14.2759 32.9427L19.6093 27.6094C20.1306 27.088 20.1306 26.2453 19.6093 25.7241Z" fill="url(#paint5_linear)"/>
<path d="M24.9427 31.0573L19.6094 25.7241C19.0894 25.2027 18.2441 25.2027 17.7241 25.7241C17.2027 26.2455 17.2027 27.0881 17.7241 27.6094L23.0573 32.9427C23.3173 33.2027 23.6588 33.3333 24 33.3333C24.3414 33.3333 24.6827 33.2027 24.9427 32.9427C25.4641 32.4214 25.4641 31.5787 24.9427 31.0573Z" fill="url(#paint6_linear)"/>
<path d="M27.6093 23.0573C27.0893 22.5359 26.244 22.5359 25.724 23.0573L20.3906 28.3906C19.8692 28.912 19.8692 29.7547 20.3906 30.2759C20.6506 30.5359 20.992 30.6665 21.3332 30.6665C21.6746 30.6665 22.0159 30.5359 22.2759 30.2759L27.6092 24.9426C28.1306 24.4214 28.1306 23.5787 27.6093 23.0573Z" fill="url(#paint7_linear)"/>
<path d="M32.9427 28.3906L27.6094 23.0573C27.0894 22.5359 26.2441 22.5359 25.7241 23.0573C25.2027 23.5787 25.2027 24.4214 25.7241 24.9426L31.0573 30.2759C31.3173 30.5359 31.6587 30.6665 32 30.6665C32.3414 30.6665 32.6827 30.5359 32.9427 30.2759C33.4641 29.7547 33.4641 28.912 32.9427 28.3906Z" fill="url(#paint8_linear)"/>
<path d="M32.0001 42.6667H10.6668C9.93084 42.6667 9.3335 43.2627 9.3335 44C9.3335 44.7374 9.93084 45.3333 10.6668 45.3333H32.0001C32.736 45.3333 33.3333 44.7374 33.3333 44C33.3333 43.2627 32.736 42.6667 32.0001 42.6667Z" fill="url(#paint9_linear)"/>
<path d="M25.3333 37.3333H10.6668C9.93084 37.3333 9.3335 37.9292 9.3335 38.6665C9.3335 39.4039 9.93068 40 10.6668 40H25.3335C26.0694 40 26.6668 39.404 26.6668 38.6667C26.6668 37.9293 26.0694 37.3333 25.3333 37.3333Z" fill="url(#paint10_linear)"/>
<path d="M56.9428 25.7241C56.4228 25.2027 55.5775 25.2027 55.0575 25.7241L49.7242 31.0573C49.2029 31.5786 49.2029 32.4214 49.7242 32.9427C49.9842 33.2027 50.3256 33.3333 50.6668 33.3333C51.0082 33.3333 51.3495 33.2027 51.6095 32.9427L56.9428 27.6094C57.4642 27.088 57.4642 26.2453 56.9428 25.7241Z" fill="url(#paint11_linear)"/>
<path d="M62.2759 31.0573L56.9426 25.7241C56.4226 25.2027 55.5773 25.2027 55.0573 25.7241C54.5359 26.2455 54.5359 27.0881 55.0573 27.6094L60.3906 32.9427C60.6506 33.2027 60.992 33.3333 61.3333 33.3333C61.6747 33.3333 62.0159 33.2027 62.2759 32.9427C62.7973 32.4214 62.7973 31.5787 62.2759 31.0573Z" fill="url(#paint12_linear)"/>
<path d="M64.9428 23.0573C64.4228 22.5359 63.5775 22.5359 63.0575 23.0573L57.7242 28.3906C57.2029 28.912 57.2029 29.7547 57.7242 30.2759C57.9842 30.5359 58.3256 30.6665 58.6668 30.6665C59.0083 30.6665 59.3495 30.5359 59.6095 30.2759L64.9428 24.9426C65.4642 24.4214 65.4642 23.5787 64.9428 23.0573Z" fill="url(#paint13_linear)"/>
<path d="M70.2759 28.3906L64.9426 23.0573C64.4226 22.5359 63.5773 22.5359 63.0573 23.0573C62.5359 23.5787 62.5359 24.4214 63.0573 24.9426L68.3906 30.2759C68.6506 30.5359 68.992 30.6665 69.3333 30.6665C69.6747 30.6665 70.0159 30.5359 70.2759 30.2759C70.7973 29.7547 70.7973 28.912 70.2759 28.3906Z" fill="url(#paint14_linear)"/>
<path d="M69.3333 42.6667H48C47.2641 42.6667 46.6667 43.2627 46.6667 44C46.6667 44.7374 47.2641 45.3333 48 45.3333H69.3333C70.0693 45.3333 70.6666 44.7374 70.6666 44C70.6668 43.2627 70.0694 42.6667 69.3333 42.6667Z" fill="url(#paint15_linear)"/>
<path d="M62.6668 37.3333H48C47.2641 37.3333 46.6667 37.9292 46.6667 38.6665C46.6667 39.4039 47.2641 40 48 40H62.6668C63.4027 40 64 39.404 64 38.6667C64 37.9293 63.4027 37.3333 62.6668 37.3333Z" fill="url(#paint16_linear)"/>
<path d="M19.6093 53.7241C19.0893 53.2027 18.244 53.2027 17.724 53.7241L12.3906 59.0574C11.8692 59.5788 11.8692 60.4214 12.3906 60.9427C12.6506 61.2027 12.992 61.3333 13.3332 61.3333C13.6746 61.3333 14.0159 61.2027 14.2759 60.9427L19.6093 55.6094C20.1306 55.088 20.1306 54.2453 19.6093 53.7241Z" fill="url(#paint17_linear)"/>
<path d="M24.9427 59.0574L19.6094 53.7241C19.0894 53.2027 18.2441 53.2027 17.7241 53.7241C17.2027 54.2455 17.2027 55.0881 17.7241 55.6094L23.0573 60.9427C23.3173 61.2027 23.6588 61.3333 24 61.3333C24.3414 61.3333 24.6827 61.2027 24.9427 60.9427C25.4641 60.4214 25.4641 59.5786 24.9427 59.0574Z" fill="url(#paint18_linear)"/>
<path d="M27.6093 51.0573C27.0893 50.5359 26.244 50.5359 25.724 51.0573L20.3906 56.3906C19.8692 56.912 19.8692 57.7547 20.3906 58.2759C20.6506 58.5359 20.992 58.6665 21.3332 58.6665C21.6746 58.6665 22.0159 58.5359 22.2759 58.2759L27.6092 52.9426C28.1306 52.4214 28.1306 51.5786 27.6093 51.0573Z" fill="url(#paint19_linear)"/>
<path d="M32.9427 56.3906L27.6094 51.0573C27.0894 50.5359 26.2441 50.5359 25.7241 51.0573C25.2027 51.5787 25.2027 52.4214 25.7241 52.9426L31.0573 58.2759C31.3173 58.5359 31.6587 58.6665 32 58.6665C32.3414 58.6665 32.6827 58.5359 32.9427 58.2759C33.4641 57.7547 33.4641 56.912 32.9427 56.3906Z" fill="url(#paint20_linear)"/>
<path d="M32.0001 70.6667H10.6668C9.93084 70.6667 9.3335 71.2627 9.3335 72C9.3335 72.7374 9.93084 73.3333 10.6668 73.3333H32.0001C32.736 73.3333 33.3333 72.7374 33.3333 72C33.3333 71.2627 32.736 70.6667 32.0001 70.6667Z" fill="url(#paint21_linear)"/>
<path d="M25.3333 65.3333H10.6668C9.93084 65.3333 9.3335 65.9292 9.3335 66.6665C9.3335 67.4039 9.93084 67.9998 10.6668 67.9998H25.3335C26.0694 67.9998 26.6668 67.4039 26.6668 66.6665C26.6668 65.9292 26.0694 65.3333 25.3333 65.3333Z" fill="url(#paint22_linear)"/>
<path d="M56.9428 53.7241C56.4228 53.2027 55.5775 53.2027 55.0575 53.7241L49.7242 59.0574C49.2029 59.5788 49.2029 60.4214 49.7242 60.9427C49.9842 61.2027 50.3256 61.3333 50.6668 61.3333C51.0082 61.3333 51.3495 61.2027 51.6095 60.9427L56.9428 55.6094C57.4642 55.088 57.4642 54.2453 56.9428 53.7241Z" fill="url(#paint23_linear)"/>
<path d="M62.2759 59.0574L56.9426 53.7241C56.4226 53.2027 55.5773 53.2027 55.0573 53.7241C54.5359 54.2455 54.5359 55.0881 55.0573 55.6094L60.3906 60.9427C60.6506 61.2027 60.992 61.3333 61.3333 61.3333C61.6747 61.3333 62.0159 61.2027 62.2759 60.9427C62.7973 60.4214 62.7973 59.5786 62.2759 59.0574Z" fill="url(#paint24_linear)"/>
<path d="M64.9428 51.0573C64.4228 50.5359 63.5775 50.5359 63.0575 51.0573L57.7242 56.3906C57.2029 56.912 57.2029 57.7547 57.7242 58.2759C57.9842 58.5359 58.3256 58.6665 58.6668 58.6665C59.0083 58.6665 59.3495 58.5359 59.6095 58.2759L64.9428 52.9426C65.4642 52.4214 65.4642 51.5786 64.9428 51.0573Z" fill="url(#paint25_linear)"/>
<path d="M70.2759 56.3906L64.9426 51.0573C64.4226 50.5359 63.5773 50.5359 63.0573 51.0573C62.5359 51.5787 62.5359 52.4214 63.0573 52.9426L68.3906 58.2759C68.6506 58.5359 68.992 58.6665 69.3333 58.6665C69.6747 58.6665 70.0159 58.5359 70.2759 58.2759C70.7973 57.7547 70.7973 56.912 70.2759 56.3906Z" fill="url(#paint26_linear)"/>
<path d="M69.3333 70.6667H48C47.2641 70.6667 46.6667 71.2627 46.6667 72C46.6667 72.7374 47.2641 73.3333 48 73.3333H69.3333C70.0693 73.3333 70.6666 72.7374 70.6666 72C70.6668 71.2627 70.0694 70.6667 69.3333 70.6667Z" fill="url(#paint27_linear)"/>
<path d="M62.6668 65.3333H48C47.2641 65.3333 46.6667 65.9292 46.6667 66.6665C46.6667 67.4039 47.2641 67.9998 48 67.9998H62.6668C63.4027 67.9998 64 67.4039 64 66.6665C64 65.9292 63.4027 65.3333 62.6668 65.3333Z" fill="url(#paint28_linear)"/>
<defs>
<linearGradient id="paint0_linear" x1="-1.4" y1="40" x2="80" y2="40" gradientUnits="userSpaceOnUse">
<stop stop-color="#3494E6"/>
<stop offset="1" stop-color="#EC6EAD"/>
</linearGradient>
<linearGradient id="paint1_linear" x1="5.1935" y1="9.33325" x2="13.3333" y2="9.33325" gradientUnits="userSpaceOnUse">
<stop stop-color="#3494E6"/>
<stop offset="1" stop-color="#EC6EAD"/>
</linearGradient>
<linearGradient id="paint2_linear" x1="15.8602" y1="9.33325" x2="24.0001" y2="9.33325" gradientUnits="userSpaceOnUse">
<stop stop-color="#3494E6"/>
<stop offset="1" stop-color="#EC6EAD"/>
</linearGradient>
<linearGradient id="paint3_linear" x1="26.5268" y1="9.33325" x2="34.6666" y2="9.33325" gradientUnits="userSpaceOnUse">
<stop stop-color="#3494E6"/>
<stop offset="1" stop-color="#EC6EAD"/>
</linearGradient>
<linearGradient id="paint4_linear" x1="-1.4" y1="9.33328" x2="79.9998" y2="9.33328" gradientUnits="userSpaceOnUse">
<stop stop-color="#3494E6"/>
<stop offset="1" stop-color="#EC6EAD"/>
</linearGradient>
<linearGradient id="paint5_linear" x1="11.8595" y1="29.3331" x2="20.0003" y2="29.3331" gradientUnits="userSpaceOnUse">
<stop stop-color="#3494E6"/>
<stop offset="1" stop-color="#EC6EAD"/>
</linearGradient>
<linearGradient id="paint6_linear" x1="17.193" y1="29.3331" x2="25.3337" y2="29.3331" gradientUnits="userSpaceOnUse">
<stop stop-color="#3494E6"/>
<stop offset="1" stop-color="#EC6EAD"/>
</linearGradient>
<linearGradient id="paint7_linear" x1="19.8595" y1="26.6664" x2="28.0002" y2="26.6664" gradientUnits="userSpaceOnUse">
<stop stop-color="#3494E6"/>
<stop offset="1" stop-color="#EC6EAD"/>
</linearGradient>
<linearGradient id="paint8_linear" x1="25.193" y1="26.6664" x2="33.3337" y2="26.6664" gradientUnits="userSpaceOnUse">
<stop stop-color="#3494E6"/>
<stop offset="1" stop-color="#EC6EAD"/>
</linearGradient>
<linearGradient id="paint9_linear" x1="8.9135" y1="44" x2="33.3333" y2="44" gradientUnits="userSpaceOnUse">
<stop stop-color="#3494E6"/>
<stop offset="1" stop-color="#EC6EAD"/>
</linearGradient>
<linearGradient id="paint10_linear" x1="9.03016" y1="38.6666" x2="26.6668" y2="38.6666" gradientUnits="userSpaceOnUse">
<stop stop-color="#3494E6"/>
<stop offset="1" stop-color="#EC6EAD"/>
</linearGradient>
<linearGradient id="paint11_linear" x1="49.1932" y1="29.3331" x2="57.3338" y2="29.3331" gradientUnits="userSpaceOnUse">
<stop stop-color="#3494E6"/>
<stop offset="1" stop-color="#EC6EAD"/>
</linearGradient>
<linearGradient id="paint12_linear" x1="54.5262" y1="29.3331" x2="62.667" y2="29.3331" gradientUnits="userSpaceOnUse">
<stop stop-color="#3494E6"/>
<stop offset="1" stop-color="#EC6EAD"/>
</linearGradient>
<linearGradient id="paint13_linear" x1="57.1932" y1="26.6664" x2="65.3338" y2="26.6664" gradientUnits="userSpaceOnUse">
<stop stop-color="#3494E6"/>
<stop offset="1" stop-color="#EC6EAD"/>
</linearGradient>
<linearGradient id="paint14_linear" x1="62.5262" y1="26.6664" x2="70.667" y2="26.6664" gradientUnits="userSpaceOnUse">
<stop stop-color="#3494E6"/>
<stop offset="1" stop-color="#EC6EAD"/>
</linearGradient>
<linearGradient id="paint15_linear" x1="46.2468" y1="44" x2="70.6666" y2="44" gradientUnits="userSpaceOnUse">
<stop stop-color="#3494E6"/>
<stop offset="1" stop-color="#EC6EAD"/>
</linearGradient>
<linearGradient id="paint16_linear" x1="46.3634" y1="38.6666" x2="64" y2="38.6666" gradientUnits="userSpaceOnUse">
<stop stop-color="#3494E6"/>
<stop offset="1" stop-color="#EC6EAD"/>
</linearGradient>
<linearGradient id="paint17_linear" x1="11.8595" y1="57.3331" x2="20.0003" y2="57.3331" gradientUnits="userSpaceOnUse">
<stop stop-color="#3494E6"/>
<stop offset="1" stop-color="#EC6EAD"/>
</linearGradient>
<linearGradient id="paint18_linear" x1="17.193" y1="57.3331" x2="25.3337" y2="57.3331" gradientUnits="userSpaceOnUse">
<stop stop-color="#3494E6"/>
<stop offset="1" stop-color="#EC6EAD"/>
</linearGradient>
<linearGradient id="paint19_linear" x1="19.8595" y1="54.6664" x2="28.0002" y2="54.6664" gradientUnits="userSpaceOnUse">
<stop stop-color="#3494E6"/>
<stop offset="1" stop-color="#EC6EAD"/>
</linearGradient>
<linearGradient id="paint20_linear" x1="25.193" y1="54.6664" x2="33.3337" y2="54.6664" gradientUnits="userSpaceOnUse">
<stop stop-color="#3494E6"/>
<stop offset="1" stop-color="#EC6EAD"/>
</linearGradient>
<linearGradient id="paint21_linear" x1="8.9135" y1="72" x2="33.3333" y2="72" gradientUnits="userSpaceOnUse">
<stop stop-color="#3494E6"/>
<stop offset="1" stop-color="#EC6EAD"/>
</linearGradient>
<linearGradient id="paint22_linear" x1="9.03016" y1="66.6665" x2="26.6668" y2="66.6665" gradientUnits="userSpaceOnUse">
<stop stop-color="#3494E6"/>
<stop offset="1" stop-color="#EC6EAD"/>
</linearGradient>
<linearGradient id="paint23_linear" x1="49.1932" y1="57.3331" x2="57.3338" y2="57.3331" gradientUnits="userSpaceOnUse">
<stop stop-color="#3494E6"/>
<stop offset="1" stop-color="#EC6EAD"/>
</linearGradient>
<linearGradient id="paint24_linear" x1="54.5262" y1="57.3331" x2="62.667" y2="57.3331" gradientUnits="userSpaceOnUse">
<stop stop-color="#3494E6"/>
<stop offset="1" stop-color="#EC6EAD"/>
</linearGradient>
<linearGradient id="paint25_linear" x1="57.1932" y1="54.6664" x2="65.3338" y2="54.6664" gradientUnits="userSpaceOnUse">
<stop stop-color="#3494E6"/>
<stop offset="1" stop-color="#EC6EAD"/>
</linearGradient>
<linearGradient id="paint26_linear" x1="62.5262" y1="54.6664" x2="70.667" y2="54.6664" gradientUnits="userSpaceOnUse">
<stop stop-color="#3494E6"/>
<stop offset="1" stop-color="#EC6EAD"/>
</linearGradient>
<linearGradient id="paint27_linear" x1="46.2468" y1="72" x2="70.6666" y2="72" gradientUnits="userSpaceOnUse">
<stop stop-color="#3494E6"/>
<stop offset="1" stop-color="#EC6EAD"/>
</linearGradient>
<linearGradient id="paint28_linear" x1="46.3634" y1="66.6665" x2="64" y2="66.6665" gradientUnits="userSpaceOnUse">
<stop stop-color="#3494E6"/>
<stop offset="1" stop-color="#EC6EAD"/>
</linearGradient>
</defs>
</svg>
