<svg width="76" height="76" fill="none" xmlns="http://www.w3.org/2000/svg"><path d="M66.81 40.602c.092-.933.135-1.778.135-2.602 0-.824-.043-1.67-.135-2.602l7.048-7.949c.636-.717.742-1.76.262-2.59l-6.68-11.57a2.227 2.227 0 00-2.374-1.067l-10.417 2.131a28.917 28.917 0 00-4.512-2.632L46.795 1.533A2.226 2.226 0 0044.68 0H31.32c-.961 0-1.814.617-2.115 1.53l-3.351 10.19c-1.54.72-3.05 1.6-4.503 2.633L10.934 12.22A2.226 2.226 0 008.56 13.29L1.88 24.86c-.479.83-.373 1.873.263 2.59l7.048 7.949A26.23 26.23 0 009.055 38c0 .824.043 1.67.136 2.602L2.142 48.55a2.226 2.226 0 00-.262 2.59l6.68 11.57c.479.83 1.435 1.26 2.374 1.068l10.417-2.131a28.931 28.931 0 004.511 2.632l3.298 10.053C29.577 75.94 31.108 76 31.313 76H44.68c.41 0 1.67-.179 2.115-1.53l3.351-10.19c1.542-.72 3.05-1.601 4.503-2.633l10.417 2.132a2.226 2.226 0 002.374-1.069l6.68-11.569c.48-.83.374-1.873-.262-2.59l-7.049-7.95zm-36.732-.75l6.68 4.454a2.227 2.227 0 002.47 0l6.68-4.453c.62-.413.992-1.109.992-1.853V25.207A15.52 15.52 0 0153.58 38c0 8.594-6.993 15.586-15.587 15.586S22.407 46.594 22.407 38a15.52 15.52 0 016.68-12.793V38c0 .744.372 1.44.991 1.853zm3.462 31.695V57.54c1.433.326 2.923.5 4.453.5 1.53 0 3.02-.174 4.453-.5v14.007H33.54zm30.847-12.453l-9.143-1.87a2.227 2.227 0 00-2.38.208c-1.723 1.32-3.535 2.383-5.386 3.16a2.23 2.23 0 00-.579.357v-5.002C53.492 52.662 58.032 45.852 58.032 38a19.91 19.91 0 00-3.512-11.322 20.062 20.062 0 00-9.01-7.254 2.227 2.227 0 00-3.064 2.063v15.321l-4.453 2.97-4.453-2.97v-15.32a2.226 2.226 0 00-3.064-2.064 20.062 20.062 0 00-9.01 7.254A19.91 19.91 0 0017.954 38c0 7.852 4.54 14.663 11.133 17.947v4.984a2.214 2.214 0 00-.556-.34c-1.864-.782-3.679-1.845-5.394-3.16a2.227 2.227 0 00-2.38-.208l-9.144 1.871-5.074-8.79 6.218-7.012a2.227 2.227 0 00.978-2.14c-.155-1.205-.227-2.206-.227-3.152 0-.946.072-1.947.227-3.152a2.227 2.227 0 00-.979-2.141l-6.217-7.011 5.074-8.79 9.143 1.87a2.228 2.228 0 002.38-.208c1.724-1.32 3.536-2.384 5.386-3.16a2.226 2.226 0 001.253-1.357l3.157-9.598h10.135l3.148 9.596c.2.614.658 1.11 1.254 1.36 1.863.781 3.678 1.844 5.394 3.159.698.535 1.628.6 2.381.209l9.143-1.871 5.075 8.79-6.218 7.01a2.227 2.227 0 00-.979 2.142c.155 1.205.227 2.206.227 3.152 0 .946-.072 1.947-.227 3.152-.11.857.285 1.681.979 2.14l6.218 7.012-5.075 8.79z" fill="url(#paint0_linear)"/><defs><linearGradient id="paint0_linear" x1=".307" y1="38" x2="74.419" y2="38" gradientUnits="userSpaceOnUse"><stop stop-color="#3494E6"/><stop offset="1" stop-color="#EC6EAD"/></linearGradient></defs></svg>