<svg width="80" height="80" fill="none" xmlns="http://www.w3.org/2000/svg"><path d="M74 0H6C2.692 0 0 2.692 0 6v68c0 3.308 2.692 6 6 6h68c3.308 0 6-2.692 6-6V6c0-3.308-2.692-6-6-6zm3.333 74A3.336 3.336 0 0174 77.333H6A3.337 3.337 0 012.667 74V6A3.337 3.337 0 016 2.667h68A3.337 3.337 0 0177.333 6v68z" fill="url(#paint0_linear)"/><path d="M12 5.333H6.667c-.736 0-1.333.596-1.333 1.334V12c0 .737.597 1.333 1.333 1.333H12c.736 0 1.333-.596 1.333-1.333V6.667c0-.738-.597-1.334-1.333-1.334zm-1.333 5.334H8V8h2.667v2.667z" fill="url(#paint1_linear)"/><path d="M22.667 5.333h-5.334c-.735 0-1.333.596-1.333 1.334V12c0 .737.598 1.333 1.334 1.333h5.333c.736 0 1.333-.596 1.333-1.333V6.667c0-.738-.597-1.334-1.333-1.334zm-1.334 5.334h-2.666V8h2.666v2.667z" fill="url(#paint2_linear)"/><path d="M33.333 5.333H28c-.736 0-1.333.596-1.333 1.334V12c0 .737.597 1.333 1.333 1.333h5.333c.736 0 1.334-.596 1.334-1.333V6.667c0-.738-.598-1.334-1.334-1.334zM32 10.667h-2.667V8H32v2.667z" fill="url(#paint3_linear)"/><path d="M74 0H6C2.692 0 0 2.692 0 6v11.333c0 .738.597 1.334 1.333 1.334h77.334c.736 0 1.333-.596 1.333-1.334V6c0-3.308-2.692-6-6-6zm3.333 16H2.667V6A3.337 3.337 0 016 2.667h68A3.337 3.337 0 0177.333 6v10z" fill="url(#paint4_linear)"/><path d="M19.61 25.724a1.332 1.332 0 00-1.886 0l-5.333 5.333a1.332 1.332 0 00.942 2.276c.342 0 .683-.13.943-.39l5.333-5.334a1.332 1.332 0 000-1.885z" fill="url(#paint5_linear)"/><path d="M24.943 31.057l-5.334-5.333a1.332 1.332 0 00-1.885 0 1.332 1.332 0 000 1.885l5.333 5.334a1.33 1.33 0 001.886 0 1.332 1.332 0 000-1.886z" fill="url(#paint6_linear)"/><path d="M27.61 23.057a1.332 1.332 0 00-1.886 0l-5.333 5.334a1.332 1.332 0 00.942 2.276c.342 0 .683-.131.943-.391l5.333-5.333a1.332 1.332 0 000-1.886z" fill="url(#paint7_linear)"/><path d="M32.943 28.39l-5.334-5.333a1.332 1.332 0 00-1.885 0 1.332 1.332 0 000 1.886l5.333 5.333a1.33 1.33 0 001.886 0 1.332 1.332 0 000-1.885z" fill="url(#paint8_linear)"/><path d="M32 42.667H10.667a1.333 1.333 0 100 2.666H32a1.333 1.333 0 100-2.666z" fill="url(#paint9_linear)"/><path d="M25.333 37.333H10.667a1.333 1.333 0 100 2.667h14.667a1.333 1.333 0 100-2.667z" fill="url(#paint10_linear)"/><path d="M56.943 25.724a1.332 1.332 0 00-1.886 0l-5.333 5.333a1.332 1.332 0 101.886 1.886l5.333-5.334a1.332 1.332 0 000-1.885z" fill="url(#paint11_linear)"/><path d="M62.276 31.057l-5.333-5.333a1.332 1.332 0 00-1.886 0 1.332 1.332 0 000 1.885l5.334 5.334a1.33 1.33 0 001.885 0 1.332 1.332 0 000-1.886z" fill="url(#paint12_linear)"/><path d="M64.943 23.057a1.332 1.332 0 00-1.886 0l-5.333 5.334a1.332 1.332 0 101.886 1.885l5.333-5.333a1.332 1.332 0 000-1.886z" fill="url(#paint13_linear)"/><path d="M70.276 28.39l-5.333-5.333a1.332 1.332 0 00-1.886 0 1.332 1.332 0 000 1.886l5.334 5.333a1.33 1.33 0 001.885 0 1.332 1.332 0 000-1.885z" fill="url(#paint14_linear)"/><path d="M69.333 42.667H48a1.333 1.333 0 100 2.666h21.333a1.333 1.333 0 100-2.666z" fill="url(#paint15_linear)"/><path d="M62.667 37.333H48A1.333 1.333 0 1048 40h14.667a1.333 1.333 0 100-2.667z" fill="url(#paint16_linear)"/><path d="M19.61 53.724a1.332 1.332 0 00-1.886 0l-5.333 5.333a1.332 1.332 0 00.942 2.276c.342 0 .683-.13.943-.39l5.333-5.334a1.332 1.332 0 000-1.885z" fill="url(#paint17_linear)"/><path d="M24.943 59.057l-5.334-5.333a1.332 1.332 0 00-1.885 0 1.332 1.332 0 000 1.885l5.333 5.334a1.33 1.33 0 001.886 0 1.332 1.332 0 000-1.886z" fill="url(#paint18_linear)"/><path d="M27.61 51.057a1.332 1.332 0 00-1.886 0l-5.333 5.334a1.332 1.332 0 00.942 2.276c.342 0 .683-.131.943-.391l5.333-5.333a1.332 1.332 0 000-1.886z" fill="url(#paint19_linear)"/><path d="M32.943 56.39l-5.334-5.333a1.332 1.332 0 00-1.885 0 1.332 1.332 0 000 1.886l5.333 5.333a1.33 1.33 0 001.886 0 1.332 1.332 0 000-1.885z" fill="url(#paint20_linear)"/><path d="M32 70.667H10.667a1.333 1.333 0 100 2.666H32a1.333 1.333 0 100-2.666z" fill="url(#paint21_linear)"/><path d="M25.333 65.333H10.667a1.333 1.333 0 100 2.667h14.667a1.333 1.333 0 100-2.667z" fill="url(#paint22_linear)"/><path d="M56.943 53.724a1.332 1.332 0 00-1.886 0l-5.333 5.333a1.332 1.332 0 101.886 1.886l5.333-5.334a1.332 1.332 0 000-1.885z" fill="url(#paint23_linear)"/><path d="M62.276 59.057l-5.333-5.333a1.332 1.332 0 00-1.886 0 1.332 1.332 0 000 1.885l5.334 5.334a1.33 1.33 0 001.885 0 1.332 1.332 0 000-1.886z" fill="url(#paint24_linear)"/><path d="M64.943 51.057a1.332 1.332 0 00-1.886 0l-5.333 5.334a1.332 1.332 0 101.886 1.885l5.333-5.333a1.332 1.332 0 000-1.886z" fill="url(#paint25_linear)"/><path d="M70.276 56.39l-5.333-5.333a1.332 1.332 0 00-1.886 0 1.332 1.332 0 000 1.886l5.334 5.333a1.33 1.33 0 001.885 0 1.332 1.332 0 000-1.885z" fill="url(#paint26_linear)"/><path d="M69.333 70.667H48a1.333 1.333 0 100 2.666h21.333a1.333 1.333 0 100-2.666z" fill="url(#paint27_linear)"/><path d="M62.667 65.333H48A1.333 1.333 0 1048 68h14.667a1.333 1.333 0 100-2.667z" fill="url(#paint28_linear)"/><defs><linearGradient id="paint0_linear" x1="-1.4" y1="40" x2="80" y2="40" gradientUnits="userSpaceOnUse"><stop stop-color="#3494E6"/><stop offset="1" stop-color="#EC6EAD"/></linearGradient><linearGradient id="paint1_linear" x1="5.194" y1="9.333" x2="13.333" y2="9.333" gradientUnits="userSpaceOnUse"><stop stop-color="#3494E6"/><stop offset="1" stop-color="#EC6EAD"/></linearGradient><linearGradient id="paint2_linear" x1="15.86" y1="9.333" x2="24" y2="9.333" gradientUnits="userSpaceOnUse"><stop stop-color="#3494E6"/><stop offset="1" stop-color="#EC6EAD"/></linearGradient><linearGradient id="paint3_linear" x1="26.527" y1="9.333" x2="34.667" y2="9.333" gradientUnits="userSpaceOnUse"><stop stop-color="#3494E6"/><stop offset="1" stop-color="#EC6EAD"/></linearGradient><linearGradient id="paint4_linear" x1="-1.4" y1="9.333" x2="80" y2="9.333" gradientUnits="userSpaceOnUse"><stop stop-color="#3494E6"/><stop offset="1" stop-color="#EC6EAD"/></linearGradient><linearGradient id="paint5_linear" x1="11.86" y1="29.333" x2="20" y2="29.333" gradientUnits="userSpaceOnUse"><stop stop-color="#3494E6"/><stop offset="1" stop-color="#EC6EAD"/></linearGradient><linearGradient id="paint6_linear" x1="17.193" y1="29.333" x2="25.334" y2="29.333" gradientUnits="userSpaceOnUse"><stop stop-color="#3494E6"/><stop offset="1" stop-color="#EC6EAD"/></linearGradient><linearGradient id="paint7_linear" x1="19.86" y1="26.666" x2="28" y2="26.666" gradientUnits="userSpaceOnUse"><stop stop-color="#3494E6"/><stop offset="1" stop-color="#EC6EAD"/></linearGradient><linearGradient id="paint8_linear" x1="25.193" y1="26.666" x2="33.334" y2="26.666" gradientUnits="userSpaceOnUse"><stop stop-color="#3494E6"/><stop offset="1" stop-color="#EC6EAD"/></linearGradient><linearGradient id="paint9_linear" x1="8.914" y1="44" x2="33.333" y2="44" gradientUnits="userSpaceOnUse"><stop stop-color="#3494E6"/><stop offset="1" stop-color="#EC6EAD"/></linearGradient><linearGradient id="paint10_linear" x1="9.03" y1="38.667" x2="26.667" y2="38.667" gradientUnits="userSpaceOnUse"><stop stop-color="#3494E6"/><stop offset="1" stop-color="#EC6EAD"/></linearGradient><linearGradient id="paint11_linear" x1="49.193" y1="29.333" x2="57.334" y2="29.333" gradientUnits="userSpaceOnUse"><stop stop-color="#3494E6"/><stop offset="1" stop-color="#EC6EAD"/></linearGradient><linearGradient id="paint12_linear" x1="54.526" y1="29.333" x2="62.667" y2="29.333" gradientUnits="userSpaceOnUse"><stop stop-color="#3494E6"/><stop offset="1" stop-color="#EC6EAD"/></linearGradient><linearGradient id="paint13_linear" x1="57.193" y1="26.666" x2="65.334" y2="26.666" gradientUnits="userSpaceOnUse"><stop stop-color="#3494E6"/><stop offset="1" stop-color="#EC6EAD"/></linearGradient><linearGradient id="paint14_linear" x1="62.526" y1="26.666" x2="70.667" y2="26.666" gradientUnits="userSpaceOnUse"><stop stop-color="#3494E6"/><stop offset="1" stop-color="#EC6EAD"/></linearGradient><linearGradient id="paint15_linear" x1="46.247" y1="44" x2="70.667" y2="44" gradientUnits="userSpaceOnUse"><stop stop-color="#3494E6"/><stop offset="1" stop-color="#EC6EAD"/></linearGradient><linearGradient id="paint16_linear" x1="46.363" y1="38.667" x2="64" y2="38.667" gradientUnits="userSpaceOnUse"><stop stop-color="#3494E6"/><stop offset="1" stop-color="#EC6EAD"/></linearGradient><linearGradient id="paint17_linear" x1="11.86" y1="57.333" x2="20" y2="57.333" gradientUnits="userSpaceOnUse"><stop stop-color="#3494E6"/><stop offset="1" stop-color="#EC6EAD"/></linearGradient><linearGradient id="paint18_linear" x1="17.193" y1="57.333" x2="25.334" y2="57.333" gradientUnits="userSpaceOnUse"><stop stop-color="#3494E6"/><stop offset="1" stop-color="#EC6EAD"/></linearGradient><linearGradient id="paint19_linear" x1="19.86" y1="54.666" x2="28" y2="54.666" gradientUnits="userSpaceOnUse"><stop stop-color="#3494E6"/><stop offset="1" stop-color="#EC6EAD"/></linearGradient><linearGradient id="paint20_linear" x1="25.193" y1="54.666" x2="33.334" y2="54.666" gradientUnits="userSpaceOnUse"><stop stop-color="#3494E6"/><stop offset="1" stop-color="#EC6EAD"/></linearGradient><linearGradient id="paint21_linear" x1="8.914" y1="72" x2="33.333" y2="72" gradientUnits="userSpaceOnUse"><stop stop-color="#3494E6"/><stop offset="1" stop-color="#EC6EAD"/></linearGradient><linearGradient id="paint22_linear" x1="9.03" y1="66.666" x2="26.667" y2="66.666" gradientUnits="userSpaceOnUse"><stop stop-color="#3494E6"/><stop offset="1" stop-color="#EC6EAD"/></linearGradient><linearGradient id="paint23_linear" x1="49.193" y1="57.333" x2="57.334" y2="57.333" gradientUnits="userSpaceOnUse"><stop stop-color="#3494E6"/><stop offset="1" stop-color="#EC6EAD"/></linearGradient><linearGradient id="paint24_linear" x1="54.526" y1="57.333" x2="62.667" y2="57.333" gradientUnits="userSpaceOnUse"><stop stop-color="#3494E6"/><stop offset="1" stop-color="#EC6EAD"/></linearGradient><linearGradient id="paint25_linear" x1="57.193" y1="54.666" x2="65.334" y2="54.666" gradientUnits="userSpaceOnUse"><stop stop-color="#3494E6"/><stop offset="1" stop-color="#EC6EAD"/></linearGradient><linearGradient id="paint26_linear" x1="62.526" y1="54.666" x2="70.667" y2="54.666" gradientUnits="userSpaceOnUse"><stop stop-color="#3494E6"/><stop offset="1" stop-color="#EC6EAD"/></linearGradient><linearGradient id="paint27_linear" x1="46.247" y1="72" x2="70.667" y2="72" gradientUnits="userSpaceOnUse"><stop stop-color="#3494E6"/><stop offset="1" stop-color="#EC6EAD"/></linearGradient><linearGradient id="paint28_linear" x1="46.363" y1="66.666" x2="64" y2="66.666" gradientUnits="userSpaceOnUse"><stop stop-color="#3494E6"/><stop offset="1" stop-color="#EC6EAD"/></linearGradient></defs></svg>